# xmcd
#
# Track frame offsets:
# 150
# 12869
# 23855
# 37717
# 49691
# 60444
# 73314
# 85957
# 98742
# 111731
# 120954
#
# Disc length: 1796 seconds
#
#
# Revision: 0
# Processed by: cddbd v1.5.1PL2 Copyright (c) Steve Scherf et al.
# Submitted via: FreeRIP 2.60 
#
DISCID=8707020b
DTITLE=The Oak Ridge Boys - Bluegrass Favorites - Disk 1
DYEAR=2005
DGENRE=Bluegrass
TTITLE0=You'll Never Walk Alone
TTITLE1=Walk With Me
TTITLE2=Man Of Constant Sorrow
TTITLE3=Time Has Made A Change In Me
TTITLE4=Count Your Blessings
TTITLE5=Dear Jesus Abide With Me
TTITLE6=What A Friend We have In Jesus
TTITLE7=In The Shelter Of His Arms
TTITLE8=This Old Country Church
TTITLE9=Leaning On The Everlasting Arms
TTITLE10=Hide Thou Me
EXTD=
EXTT0=
EXTT1=
EXTT2=
EXTT3=
EXTT4=
EXTT5=
EXTT6=
EXTT7=
EXTT8=
EXTT9=
EXTT10=
PLAYORDER=
